#!OML:ASF E:\id_vita\Project 1\Capture day 1\Session 1\Male1.ASF
:FULLY-SPECIFIED
:DEGREES
2037
root 18.8604 2.78814 4.68798 161.672 77.937 193.624
lowerback 40.6445 1.9306 -0.623622
upperback 16.8282 5.47892 2.35031
thorax -1.03188 3.9269 0.88307
lowerneck -19.1355 -3.32691 1.00722
upperneck -3.57678 -4.22006 2.12163
head 2.1432 -1.83413 0.201841
rclavicle 7.55382e-015 -1.64991e-014
rhumerus 58.4908 41.5284 11.5106
rradius 54.625
rwrist -6.81793
rhand -8.42089 -317.117
rfingers 7.12502
rthumb 17.5038 13.6509
lclavicle 7.55382e-015 -1.64991e-014
lhumerus -158.012 21.0178 -87.0173
lradius 12.3488
lwrist -117.027
lhand -40.0436 65.4836
lfingers 7.12502
lthumb -13.0098 -95.058
rfemur -101.931 -22.1251 32.229
rtibia 93.091
rfoot 12.6573 18.1246
rtoes -14.1016
lfemur -89.2253 8.29301 -38.6173
ltibia 69.6565
lfoot 32.9592 5.45009
ltoes 36.0829
2038
root 18.8602 2.78791 4.68809 161.713 77.9383 193.659
lowerback 40.6319 1.92839 -0.63304
upperback 16.8325 5.47285 2.36009
thorax -1.02493 3.92262 0.901077
lowerneck -19.0434 -3.37205 1.01758
upperneck -3.64451 -4.27742 2.05107
head 2.1014 -1.8673 0.174899
rclavicle 1.80894e-014 -3.57812e-015
rhumerus 58.535 41.5221 11.5599
rradius 54.6323
rwrist -6.82651
rhand -8.44634 -317.109
rfingers 7.12502
rthumb 17.4793 13.6571
lclavicle 1.80894e-014 -3.57812e-015
lhumerus -158.029 20.9154 -87.0467
lradius 12.355
lwrist -117.12
lhand -40.0499 65.4501
lfingers 7.12502
lthumb -13.0159 -95.024
rfemur -101.941 -22.1261 32.2299
rtibia 93.0922
rfoot 12.706 18.0863
rtoes -14.0051
lfemur -89.2348 8.30115 -38.6227
ltibia 69.6516
lfoot 32.9864 5.44803
ltoes 36.1072
2039
root 18.8604 2.78749 4.68786 161.794 77.9324 193.734
lowerback 40.6148 1.91643 -0.631356
upperback 16.8346 5.45802 2.366
thorax -1.01796 3.9146 0.912528
lowerneck -18.9817 -3.39784 0.969223
upperneck -3.66616 -4.30186 2.06311
head 2.08461 -1.8799 0.186517
rclavicle -3.48867e-014 -1.45113e-014
rhumerus 58.6027 41.5257 11.6387
rradius 54.6515
rwrist -6.85576
rhand -8.48372 -317.116
rfingers 7.12502
rthumb 17.4434 13.6469
lclavicle -3.48867e-014 -1.45113e-014
lhumerus -158.075 20.6763 -87.1575
lradius 12.3848
lwrist -117.365
lhand -40.0507 65.4375
lfingers 7.12502
lthumb -13.0167 -95.0114
rfemur -101.957 -22.136 32.2385
rtibia 93.0949
rfoot 12.7638 18.0548
rtoes -13.9007
lfemur -89.244 8.29503 -38.6162
ltibia 69.6504
lfoot 33.0023 5.4698
ltoes 36.1573
2040
root 18.8607 2.78694 4.68736 161.856 77.919 193.792
lowerback 40.5974 1.89972 -0.628826
upperback 16.8381 5.4379 2.36716
thorax -1.00868 3.90452 0.920569
lowerneck -18.9881 -3.40373 0.873109
upperneck -3.62116 -4.29535 2.1456
head 2.10606 -1.87291 0.229822
rclavicle -1.74931e-014 -8.34896e-015
rhumerus 58.6734 41.5302 11.7244
rradius 54.679
rwrist -6.901
rhand -8.54959 -317.157
rfingers 7.12502
rthumb 17.38 13.5997
lclavicle -1.74931e-014 -8.34896e-015
lhumerus -158.173 20.2458 -87.3786
lradius 12.4525
lwrist -117.83
lhand -40.0594 65.4314
lfingers 7.12502
lthumb -13.025 -95.0048
rfemur -101.976 -22.156 32.2421
rtibia 93.0992
rfoot 12.8276 18.0296
rtoes -13.7624
lfemur -89.2496 8.28122 -38.6142
ltibia 69.6527
lfoot 33.0058 5.50441
ltoes 36.2182
2041
root 18.8609 2.78636 4.68677 161.872 77.9056 193.812
lowerback 40.5874 1.88512 -0.630982
upperback 16.8442 5.41967 2.3651
thorax -0.998447 3.89583 0.926797
lowerneck -19.0445 -3.4004 0.761938
upperneck -3.53857 -4.27584 2.25396
head 2.15051 -1.8575 0.284067
rclavicle -9.29318e-014 3.29983e-014
rhumerus 58.7311 41.5302 11.7998
rradius 54.7098
rwrist -6.95451
rhand -8.63895 -317.232
rfingers 7.12502
rthumb 17.294 13.518
lclavicle -9.29318e-014 3.29983e-014
lhumerus -158.29 19.7677 -87.6261
lradius 12.5358
lwrist -118.353
lhand -40.0816 65.4157
lfingers 7.12502
lthumb -13.0465 -94.9877
rfemur -101.981 -22.179 32.2305
rtibia 93.1031
rfoot 12.8857 18.0053
rtoes -13.5855
lfemur -89.247 8.27206 -38.6206
ltibia 69.6576
lfoot 32.9975 5.5352
ltoes 36.2637
